<?xml version="1.0" standalone="no"?>
<!DOCTYPE svg PUBLIC "-//W3C//DTD SVG 20010904//EN"
 "http://www.w3.org/TR/2001/REC-SVG-20010904/DTD/svg10.dtd">
<svg version="1.0" xmlns="http://www.w3.org/2000/svg"
 width="189.000000pt" height="116.000000pt" viewBox="0 0 189.000000 116.000000"
 preserveAspectRatio="xMidYMid meet">

<g transform="translate(0.000000,116.000000) scale(0.100000,-0.100000)"
fill="#000000" stroke="none">
<path d="M1246 1128 c-17 -24 -21 -84 -8 -105 4 -7 18 -11 31 -8 17 3 21 0 17
-10 -3 -8 -1 -17 4 -20 4 -3 10 1 13 7 3 8 9 3 15 -12 9 -21 11 -22 11 -5 1
11 10 35 21 53 27 45 25 63 -11 95 -38 33 -73 35 -93 5z"/>
<path d="M1620 861 c-49 -13 -118 -49 -154 -81 -20 -18 -36 -29 -36 -25 0 4
-7 2 -15 -5 -8 -7 -15 -18 -15 -24 0 -6 7 -2 15 8 8 11 15 15 15 9 0 -14 -25
-35 -33 -27 -10 10 -27 -34 -21 -53 4 -13 3 -14 -3 -5 -12 17 -33 -27 -33 -69
0 -35 12 -60 53 -111 55 -68 131 -61 208 19 24 25 38 42 30 38 -10 -5 -8 2 5
24 10 17 22 31 27 31 4 0 5 -5 1 -11 -5 -8 -1 -8 14 0 18 9 21 7 31 -21 6 -17
29 -55 51 -85 45 -58 82 -76 108 -49 15 14 15 18 -1 51 -10 22 -24 35 -36 35
-38 0 -44 24 -38 139 4 59 9 115 12 123 9 22 -28 53 -81 68 -24 7 -44 17 -44
21 0 10 -23 10 -60 0z m80 -38 c0 -5 -14 -32 -30 -61 -16 -30 -24 -49 -17 -44
8 7 16 6 24 -3 15 -16 7 -22 -24 -20 -15 2 -35 -14 -66 -49 -51 -59 -119 -109
-141 -104 -13 3 -13 8 3 44 11 23 36 60 56 83 20 22 38 46 39 53 5 34 32 62
79 84 53 24 77 30 77 17z"/>
<path d="M152 835 c-18 -8 -45 -24 -59 -35 -14 -11 -33 -20 -43 -20 -22 0 -50
-31 -50 -56 0 -38 48 -123 72 -128 13 -3 49 -10 81 -16 31 -6 57 -13 57 -15 0
-2 -13 -18 -28 -35 -22 -24 -39 -32 -81 -37 -32 -4 -49 -9 -43 -15 6 -6 25 -5
49 2 21 7 50 10 63 8 l25 -5 -24 -10 c-22 -9 -19 -10 28 -16 90 -11 120 15
106 91 -15 79 -59 121 -148 137 -21 4 -39 11 -42 15 -5 8 95 60 117 60 7 0 20
6 29 13 15 11 15 17 3 45 -11 27 -18 32 -46 32 -18 -1 -48 -7 -66 -15z"/>
<path d="M480 827 c-44 -17 -62 -32 -88 -72 -18 -27 -36 -62 -39 -78 -4 -20
-8 -25 -14 -15 -5 8 -9 -6 -9 -37 0 -57 40 -138 87 -175 25 -20 37 -22 110
-18 l81 4 -20 -50 c-11 -28 -24 -62 -30 -76 -5 -14 -30 -69 -55 -122 l-46 -97
46 -46 c25 -25 50 -45 55 -45 14 0 107 206 152 337 l41 118 67 0 c53 0 79 6
121 27 30 15 58 25 63 22 4 -3 8 -1 8 5 0 6 6 8 14 5 20 -8 73 42 86 81 6 18
8 49 5 69 -9 46 -91 146 -138 170 -49 24 -116 15 -155 -21 -19 -17 -22 -23 -9
-19 14 5 10 -5 -14 -35 -18 -23 -35 -37 -37 -30 -2 6 -12 11 -22 11 -13 0 -21
-13 -30 -50 -7 -27 -16 -48 -20 -45 -5 3 -20 -31 -35 -74 -14 -44 -33 -82 -42
-85 -12 -5 -13 -3 -6 6 5 7 10 25 11 39 l2 27 -40 -14 c-61 -21 -156 -23 -176
-3 -15 16 -15 21 0 72 9 31 20 59 25 62 6 3 18 -8 27 -25 22 -36 65 -40 122
-11 92 47 115 104 69 172 -19 29 -29 34 -67 36 -29 2 -65 -5 -100 -20z m104
-48 c-32 -36 -101 -71 -124 -64 -18 6 -19 9 -8 22 16 20 106 63 132 63 19 0
19 0 0 -21z m424 -72 c5 -27 -163 -185 -172 -163 -3 6 -13 1 -24 -13 -10 -13
-25 -21 -33 -18 -9 4 -7 6 6 6 16 1 17 3 6 10 -12 8 -13 18 -2 65 8 37 9 66 3
89 -9 32 -8 34 14 29 20 -3 22 -7 13 -18 -8 -9 -8 -14 -1 -14 6 0 14 5 17 11
4 6 13 8 19 6 7 -3 37 3 67 14 63 22 82 21 87 -4z m-143 -207 c-3 -5 -14 -10
-23 -9 -14 0 -13 2 3 9 27 11 27 11 20 0z m-52 -17 c-7 -2 -21 -2 -30 0 -10 3
-4 5 12 5 17 0 24 -2 18 -5z"/>
<path d="M1219 848 c0 -2 -2 -21 -5 -43 -6 -56 -39 -161 -74 -240 -38 -86 -39
-107 -4 -74 26 24 26 24 15 2 -11 -22 1 -34 14 -13 3 6 11 10 16 10 6 0 7 -6
3 -12 -5 -9 -2 -9 9 1 15 12 17 11 17 -8 0 -12 -5 -31 -10 -42 -6 -10 -7 -19
-3 -19 21 0 105 189 123 274 16 79 7 112 -41 141 -34 22 -57 31 -60 23z"/>
<path d="M75 450 c-3 -6 5 -10 19 -10 14 0 28 5 31 10 3 6 -5 10 -19 10 -14 0
-28 -4 -31 -10z"/>
</g>
</svg>
